<svg xmlns="http://www.w3.org/2000/svg" xmlns:xlink="http://www.w3.org/1999/xlink" width="1080" zoomAndPan="magnify" viewBox="0 0 810 809.999993" height="1080" preserveAspectRatio="xMidYMid meet" version="1.0"><defs><clipPath id="3b5c78207c"><path d="M 243 225.207031 L 567 225.207031 L 567 486.957031 L 243 486.957031 Z M 243 225.207031 " clip-rule="nonzero"/></clipPath><clipPath id="79588ea930"><path d="M 395.027344 450.375 C 389.003906 447.535156 382.632812 442.199219 382.632812 434.441406 C 382.632812 426.679688 383.324219 429.453125 384.433594 427.71875 C 385.816406 425.226562 388.3125 423.078125 390.457031 421.34375 C 392.257812 419.960938 391.84375 420.304688 393.296875 421 C 395.445312 421.691406 397.519531 422.039062 399.667969 422.800781 C 399.320312 422.800781 397.867188 423.148438 397.175781 423.492188 C 392.535156 425.292969 386.925781 429.519531 386.925781 435.203125 C 386.925781 440.882812 387.964844 440.191406 389.417969 441.921875 C 390.457031 442.960938 391.21875 444.070312 392.257812 444.761719 C 393.644531 445.800781 395.097656 446.910156 396.898438 447.601562 C 397.9375 448.296875 401.882812 449.75 401.882812 449.75 C 402.230469 450.097656 401.882812 450.097656 402.230469 450.097656 C 401.191406 450.445312 399.738281 450.789062 398.699219 451.136719 C 398.46875 451.367188 398.121094 451.484375 397.660156 451.484375 L 395.167969 450.445312 Z M 414.140625 455.015625 C 413.792969 454.671875 413.449219 454.324219 413.101562 454.324219 C 412.410156 453.976562 412.410156 453.632812 411.71875 453.976562 C 410.679688 454.324219 409.917969 454.671875 408.878906 454.671875 C 409.222656 455.015625 410.679688 455.710938 411.371094 455.710938 C 412.0625 456.054688 412.753906 456.75 413.515625 457.09375 C 418.503906 460.28125 420.234375 465.617188 418.503906 471.644531 C 417.117188 476.632812 413.863281 481.207031 409.984375 484.046875 C 409.640625 484.738281 408.945312 485.085938 408.183594 485.429688 C 407.492188 485.777344 405.691406 486.472656 405.691406 486.816406 C 407.078125 486.472656 409.570312 485.015625 410.679688 483.976562 C 411.71875 483.285156 412.824219 482.175781 413.863281 481.484375 C 414.554688 480.441406 415.664062 479.335938 416.355469 478.296875 C 420.582031 472.269531 422.726562 464.785156 418.15625 458.410156 C 417.117188 457.027344 415.664062 455.917969 414.28125 454.878906 Z M 383.671875 380.882812 C 385.054688 381.230469 384.363281 381.230469 386.164062 380.191406 C 388.65625 378.804688 391.148438 377.695312 393.988281 376.65625 C 395.027344 376.65625 396.136719 376.3125 396.828125 375.964844 C 397.519531 375.964844 399.667969 375.273438 400.015625 375.273438 C 399.667969 375.273438 396.828125 374.578125 396.136719 374.234375 C 392.949219 373.539062 389.074219 371.738281 386.234375 370.351562 C 383.394531 368.550781 377.023438 364.671875 378.0625 359.683594 C 378.410156 358.644531 379.449219 357.535156 379.863281 356.84375 C 380.554688 356.148438 381.664062 354.695312 382.355469 354.347656 C 385.542969 351.507812 389.765625 349.015625 394.058594 347.28125 C 395.097656 346.9375 396.207031 346.242188 397.246094 345.894531 L 400.777344 344.511719 C 398.628906 344.164062 396.550781 343.472656 394.75 343.125 C 392.605469 342.777344 390.527344 342.085938 388.726562 341.738281 C 386.578125 341.394531 384.503906 341.046875 382.355469 340.355469 C 382.007812 340.355469 381.316406 340.007812 380.972656 340.007812 C 380.625 340.007812 378.132812 341.808594 377.785156 342.15625 C 377.09375 342.847656 374.253906 344.996094 373.5625 345.6875 C 372.523438 347.074219 371.414062 348.183594 370.375 349.914062 C 365.042969 356.980469 365.042969 364.808594 370.722656 371.878906 C 372.523438 374.371094 375.707031 376.519531 378.894531 378.597656 C 380.277344 379.289062 382.078125 379.984375 383.878906 381.09375 Z M 404.238281 456.472656 L 404.929688 484.460938 L 405.277344 484.460938 L 405.96875 456.054688 L 404.167969 456.402344 Z M 425.84375 383.726562 C 425.613281 383.492188 425.265625 383.378906 424.804688 383.378906 C 423.421875 384.070312 421.964844 384.417969 420.582031 384.765625 C 418.78125 385.457031 415.941406 386.148438 413.863281 386.566406 C 413.515625 386.566406 412.0625 386.566406 411.71875 386.910156 C 415.59375 387.605469 419.542969 389.40625 421.964844 391.554688 C 424.457031 392.9375 427.644531 396.886719 426.605469 401.460938 C 424.457031 408.179688 416.703125 412.476562 410.332031 414.210938 L 409.984375 414.554688 L 409.640625 414.554688 C 412.824219 415.59375 415.316406 416.355469 417.8125 417.742188 C 418.273438 417.972656 418.871094 417.859375 419.613281 417.394531 C 421.757812 416.703125 423.144531 416.011719 425.289062 414.554688 C 429.167969 411.714844 433.460938 406.378906 434.152344 401.460938 C 435.191406 396.472656 433.460938 392.246094 430.96875 388.714844 C 429.582031 386.910156 427.78125 385.179688 425.980469 383.726562 Z M 345.722656 244.328125 L 259.578125 248.96875 C 261.726562 256.453125 270.242188 265.667969 281.183594 263.867188 L 351.679688 247.515625 L 345.652344 244.328125 Z M 346.070312 238.992188 L 394.957031 265.25 L 359.503906 232.273438 C 359.15625 231.925781 352.785156 225.207031 336.097656 225.207031 L 243.027344 225.207031 C 243.375 233.382812 250.089844 243.636719 261.101562 243.636719 L 346.140625 238.992188 Z M 358.464844 251.046875 L 284.367188 268.4375 C 287.554688 274.464844 295.726562 281.1875 304.589844 279.800781 L 371.207031 257.839844 L 358.464844 251.117188 Z M 377.230469 260.957031 L 322.316406 279.386719 C 325.503906 285.066406 335.40625 291.441406 343.578125 287.90625 L 389.28125 267.328125 Z M 438.863281 257.769531 L 505.480469 279.730469 C 513.996094 281.117188 522.515625 274.398438 525.699219 268.367188 L 451.257812 250.980469 L 438.863281 257.699219 Z M 458.320312 247.515625 L 528.816406 263.867188 C 539.480469 265.667969 548.273438 256.382812 550.074219 248.96875 L 464.347656 244.328125 Z M 420.375 267.398438 L 466.421875 287.976562 C 474.59375 291.507812 484.152344 285.136719 487.335938 279.453125 L 432.421875 261.023438 Z M 439.832031 349.359375 L 436.648438 345.480469 C 432.769531 341.601562 428.820312 339.453125 424.25 336.613281 C 421.410156 335.226562 417.535156 333.425781 414.695312 331.96875 C 411.164062 330.929688 407.632812 329.824219 404.03125 328.785156 C 394.128906 325.597656 378.546875 321.714844 370.375 317.074219 C 361.859375 312.433594 361.859375 303.980469 370.375 300.378906 C 375.015625 298.578125 376.054688 300.722656 381.039062 300.722656 C 386.71875 300.378906 396.273438 295.042969 396.273438 290.46875 C 396.273438 285.898438 388.101562 281.949219 379.585938 281.601562 C 374.945312 281.601562 372.523438 284.441406 369.683594 285.480469 C 355.488281 290.125 344.199219 298.992188 347.730469 315.273438 C 348.769531 319.152344 350.917969 322.757812 354.101562 325.527344 C 354.792969 326.21875 355.902344 326.914062 356.59375 327.328125 C 359.089844 329.476562 361.582031 330.863281 364.765625 332.316406 C 374.667969 336.957031 383.878906 338.34375 394.890625 340.839844 C 398.421875 341.878906 406.9375 343.679688 410.125 344.71875 C 414.003906 346.105469 420.027344 348.945312 423.558594 351.09375 C 424.945312 351.785156 426.050781 352.894531 427.089844 353.585938 C 427.78125 354.28125 428.128906 354.625 428.890625 355.386719 C 430.277344 357.1875 432.421875 358.921875 432.078125 361.761719 C 431.382812 364.949219 428.542969 367.097656 426.050781 368.828125 C 425.011719 369.523438 423.558594 370.214844 422.171875 370.976562 C 419.335938 372.363281 415.804688 373.816406 412.617188 374.511719 C 409.085938 375.550781 405.554688 375.894531 401.953125 377.003906 C 392.050781 378.804688 382.078125 382.683594 377.507812 391.207031 C 376.125 394.046875 375.363281 398.273438 376.125 401.875 C 376.816406 405.0625 378.960938 408.597656 380.347656 410.398438 C 384.570312 415.386719 390.25 418.226562 396.621094 419.960938 C 403.683594 422.105469 411.164062 421.761719 416.839844 425.640625 C 419.335938 427.027344 421.828125 429.175781 422.867188 432.707031 C 423.90625 436.585938 422.171875 440.191406 420.375 442.269531 C 415.734375 447.257812 410.125 449.335938 403.683594 451.484375 C 399.804688 452.867188 397.660156 453.632812 394.820312 455.710938 C 392.328125 457.511719 390.179688 460.351562 389.488281 463.539062 C 388.449219 468.875 390.527344 474.207031 393.367188 478.085938 C 394.40625 479.890625 395.167969 480.582031 396.550781 481.621094 C 397.9375 483.007812 401.539062 486.261719 404.375 486.957031 C 404.375 486.609375 402.578125 485.917969 401.882812 485.570312 C 400.082031 484.53125 397.660156 482.730469 396.207031 480.582031 C 394.40625 478.433594 392.328125 475.246094 391.21875 471.714844 C 390.179688 467.070312 390.527344 463.539062 393.019531 460.351562 C 395.167969 457.511719 398.007812 455.710938 401.539062 454.671875 C 407.5625 452.867188 414.28125 451.484375 419.265625 447.949219 C 420.648438 446.910156 422.105469 445.800781 423.144531 444.761719 C 424.945312 442.269531 425.980469 440.882812 427.019531 438.042969 C 428.058594 433.398438 426.675781 429.519531 424.875 426.679688 C 423.074219 424.1875 420.234375 421.691406 417.464844 419.960938 C 411.09375 416.425781 402.921875 416.078125 396.207031 413.238281 C 392.671875 411.851562 389.488281 410.050781 387.339844 407.902344 C 387.339844 407.558594 386.996094 407.210938 386.648438 406.863281 C 385.957031 405.824219 384.847656 405.0625 384.503906 403.679688 C 381.316406 397.996094 384.847656 393.007812 389.835938 390.167969 C 396.207031 386.632812 404.375 385.941406 412.546875 384.832031 C 421.066406 383.03125 429.238281 380.191406 435.261719 375.617188 C 437.410156 373.816406 438.792969 372.777344 440.59375 370.285156 C 442.394531 367.441406 444.125 363.5625 443.777344 359.269531 C 443.433594 355.042969 441.632812 351.785156 439.902344 349.359375 Z M 473.488281 225.207031 C 457.214844 225.207031 450.425781 231.925781 450.082031 232.273438 L 414.625 265.25 L 463.859375 238.992188 L 548.898438 243.636719 C 559.910156 243.289062 566.625 233.382812 566.972656 225.207031 L 473.417969 225.207031 Z M 439.832031 285.480469 C 437.339844 284.441406 434.847656 281.601562 430.277344 281.601562 C 421.757812 281.949219 413.585938 284.789062 413.242188 290.46875 C 413.242188 295.113281 422.796875 300.378906 428.820312 300.722656 C 433.808594 300.722656 434.847656 298.578125 439.484375 300.378906 C 447.65625 303.910156 448.003906 312.433594 439.140625 317.074219 C 433.113281 320.609375 424.25 323.449219 417.1875 325.25 C 414.347656 325.941406 411.507812 326.636719 408.671875 327.398438 L 410.054688 256.105469 C 413.242188 254.304688 415.042969 251.117188 415.042969 247.585938 C 415.042969 241.902344 410.402344 237.332031 404.792969 237.332031 C 399.183594 237.332031 394.890625 241.972656 394.890625 247.585938 C 394.890625 253.195312 396.691406 254.304688 399.875 256.105469 L 401.261719 325.664062 L 404.445312 326.703125 L 407.976562 327.398438 C 410.46875 328.4375 412.964844 329.199219 415.386719 329.890625 C 418.574219 331.277344 422.449219 333.078125 425.289062 334.878906 C 427.089844 335.574219 428.476562 336.683594 429.929688 337.722656 C 430.277344 337.722656 430.96875 337.375 431.730469 337.027344 C 434.914062 336.335938 437.753906 335.640625 440.59375 334.1875 C 448.765625 331.347656 460.050781 324.972656 462.199219 315.410156 C 465.386719 299.0625 454.027344 290.191406 439.902344 285.621094 Z M 407.5625 373.472656 L 408.253906 346.519531 C 406.109375 346.171875 403.613281 345.480469 401.539062 345.132812 L 402.230469 374.578125 C 404.03125 374.234375 405.761719 373.886719 407.5625 373.539062 Z M 406.523438 413.933594 L 407.214844 387.671875 C 405.832031 388.019531 404.03125 388.367188 402.578125 388.367188 L 403.269531 412.824219 C 404.308594 413.167969 405.414062 413.515625 406.453125 413.863281 Z M 405.832031 448.367188 L 406.523438 424.253906 C 405.484375 424.253906 404.375 423.910156 403.339844 423.910156 L 404.03125 449.128906 L 405.832031 448.433594 Z M 405.832031 448.367188 " clip-rule="nonzero"/></clipPath><linearGradient x1="279.444137" gradientTransform="matrix(0.692486, 0, 0, 0.692827, 232.017061, 182.804888)" y1="454.277451" x2="248.740959" gradientUnits="userSpaceOnUse" y2="43.784457" id="6585a1fd22"><stop stop-opacity="1" stop-color="rgb(79.199219%, 94.099426%, 97.299194%)" offset="0"/><stop stop-opacity="1" stop-color="rgb(79.199219%, 94.099426%, 97.299194%)" offset="0.0625"/><stop stop-opacity="1" stop-color="rgb(79.199219%, 94.099426%, 97.299194%)" offset="0.078125"/><stop stop-opacity="1" stop-color="rgb(78.514099%, 93.496704%, 96.922302%)" offset="0.0820312"/><stop stop-opacity="1" stop-color="rgb(77.830505%, 92.893982%, 96.546936%)" offset="0.0859375"/><stop stop-opacity="1" stop-color="rgb(76.985168%, 92.150879%, 96.081543%)" offset="0.0898437"/><stop stop-opacity="1" stop-color="rgb(76.141357%, 91.407776%, 95.617676%)" offset="0.09375"/><stop stop-opacity="1" stop-color="rgb(75.296021%, 90.664673%, 95.152283%)" offset="0.0976562"/><stop stop-opacity="1" stop-color="rgb(74.452209%, 89.92157%, 94.688416%)" offset="0.101562"/><stop stop-opacity="1" stop-color="rgb(73.606873%, 89.178467%, 94.223022%)" offset="0.105469"/><stop stop-opacity="1" stop-color="rgb(72.763062%, 88.435364%, 93.759155%)" offset="0.109375"/><stop stop-opacity="1" stop-color="rgb(71.917725%, 87.690735%, 93.293762%)" offset="0.113281"/><stop stop-opacity="1" stop-color="rgb(71.073914%, 86.947632%, 92.829895%)" offset="0.117187"/><stop stop-opacity="1" stop-color="rgb(70.228577%, 86.204529%, 92.364502%)" offset="0.121094"/><stop stop-opacity="1" stop-color="rgb(69.384766%, 85.461426%, 91.900635%)" offset="0.125"/><stop stop-opacity="1" stop-color="rgb(68.539429%, 84.718323%, 91.435242%)" offset="0.128906"/><stop stop-opacity="1" stop-color="rgb(67.694092%, 83.97522%, 90.971375%)" offset="0.132812"/><stop stop-opacity="1" stop-color="rgb(66.848755%, 83.232117%, 90.505981%)" offset="0.136719"/><stop stop-opacity="1" stop-color="rgb(66.004944%, 82.489014%, 90.042114%)" offset="0.140625"/><stop stop-opacity="1" stop-color="rgb(65.159607%, 81.745911%, 89.578247%)" offset="0.144531"/><stop stop-opacity="1" stop-color="rgb(64.315796%, 81.002808%, 89.11438%)" offset="0.148437"/><stop stop-opacity="1" stop-color="rgb(63.470459%, 80.258179%, 88.648987%)" offset="0.152344"/><stop stop-opacity="1" stop-color="rgb(62.626648%, 79.515076%, 88.18512%)" offset="0.15625"/><stop stop-opacity="1" stop-color="rgb(61.781311%, 78.771973%, 87.719727%)" offset="0.160156"/><stop stop-opacity="1" stop-color="rgb(60.9375%, 78.02887%, 87.255859%)" offset="0.164062"/><stop stop-opacity="1" stop-color="rgb(60.092163%, 77.285767%, 86.790466%)" offset="0.167969"/><stop stop-opacity="1" stop-color="rgb(59.248352%, 76.542664%, 86.326599%)" offset="0.171875"/><stop stop-opacity="1" stop-color="rgb(58.862305%, 76.190186%, 86.11145%)" offset="0.175781"/><stop stop-opacity="1" stop-color="rgb(58.477783%, 75.839233%, 85.897827%)" offset="0.179687"/><stop stop-opacity="1" stop-color="rgb(58.105469%, 75.498962%, 85.690308%)" offset="0.183594"/><stop stop-opacity="1" stop-color="rgb(57.73468%, 75.158691%, 85.484314%)" offset="0.1875"/><stop stop-opacity="1" stop-color="rgb(57.362366%, 74.81842%, 85.276794%)" offset="0.191406"/><stop stop-opacity="1" stop-color="rgb(56.991577%, 74.479675%, 85.069275%)" offset="0.195312"/><stop stop-opacity="1" stop-color="rgb(56.619263%, 74.139404%, 84.861755%)" offset="0.199219"/><stop stop-opacity="1" stop-color="rgb(56.248474%, 73.799133%, 84.655762%)" offset="0.203125"/><stop stop-opacity="1" stop-color="rgb(55.87616%, 73.458862%, 84.448242%)" offset="0.207031"/><stop stop-opacity="1" stop-color="rgb(55.505371%, 73.120117%, 84.242249%)" offset="0.210937"/><stop stop-opacity="1" stop-color="rgb(55.133057%, 72.779846%, 84.034729%)" offset="0.214844"/><stop stop-opacity="1" stop-color="rgb(54.760742%, 72.439575%, 83.828735%)" offset="0.21875"/><stop stop-opacity="1" stop-color="rgb(54.388428%, 72.099304%, 83.621216%)" offset="0.222656"/><stop stop-opacity="1" stop-color="rgb(54.017639%, 71.759033%, 83.413696%)" offset="0.226562"/><stop stop-opacity="1" stop-color="rgb(53.645325%, 71.418762%, 83.206177%)" offset="0.230469"/><stop stop-opacity="1" stop-color="rgb(53.274536%, 71.080017%, 83.000183%)" offset="0.234375"/><stop stop-opacity="1" stop-color="rgb(52.902222%, 70.739746%, 82.792664%)" offset="0.238281"/><stop stop-opacity="1" stop-color="rgb(52.531433%, 70.399475%, 82.58667%)" offset="0.242187"/><stop stop-opacity="1" stop-color="rgb(52.159119%, 70.059204%, 82.37915%)" offset="0.246094"/><stop stop-opacity="1" stop-color="rgb(51.78833%, 69.720459%, 82.173157%)" offset="0.25"/><stop stop-opacity="1" stop-color="rgb(51.416016%, 69.380188%, 81.965637%)" offset="0.253906"/><stop stop-opacity="1" stop-color="rgb(51.045227%, 69.039917%, 81.759644%)" offset="0.257812"/><stop stop-opacity="1" stop-color="rgb(50.672913%, 68.699646%, 81.552124%)" offset="0.261719"/><stop stop-opacity="1" stop-color="rgb(50.302124%, 68.360901%, 81.344604%)" offset="0.265625"/><stop stop-opacity="1" stop-color="rgb(49.92981%, 68.02063%, 81.137085%)" offset="0.269531"/><stop stop-opacity="1" stop-color="rgb(49.559021%, 67.680359%, 80.931091%)" offset="0.273437"/><stop stop-opacity="1" stop-color="rgb(49.186707%, 67.340088%, 80.723572%)" offset="0.277344"/><stop stop-opacity="1" stop-color="rgb(48.815918%, 66.999817%, 80.517578%)" offset="0.28125"/><stop stop-opacity="1" stop-color="rgb(48.443604%, 66.659546%, 80.310059%)" offset="0.285156"/><stop stop-opacity="1" stop-color="rgb(48.072815%, 66.320801%, 80.104065%)" offset="0.289062"/><stop stop-opacity="1" stop-color="rgb(47.7005%, 65.98053%, 79.896545%)" offset="0.292969"/><stop stop-opacity="1" stop-color="rgb(47.328186%, 65.640259%, 79.689026%)" offset="0.296875"/><stop stop-opacity="1" stop-color="rgb(46.955872%, 65.299988%, 79.481506%)" offset="0.300781"/><stop stop-opacity="1" stop-color="rgb(46.585083%, 64.961243%, 79.275513%)" offset="0.304688"/><stop stop-opacity="1" stop-color="rgb(46.212769%, 64.620972%, 79.067993%)" offset="0.308594"/><stop stop-opacity="1" stop-color="rgb(45.84198%, 64.280701%, 78.862%)" offset="0.3125"/><stop stop-opacity="1" stop-color="rgb(45.469666%, 63.94043%, 78.65448%)" offset="0.316406"/><stop stop-opacity="1" stop-color="rgb(45.098877%, 63.600159%, 78.448486%)" offset="0.320312"/><stop stop-opacity="1" stop-color="rgb(44.726562%, 63.259888%, 78.240967%)" offset="0.324219"/><stop stop-opacity="1" stop-color="rgb(44.355774%, 62.921143%, 78.033447%)" offset="0.328125"/><stop stop-opacity="1" stop-color="rgb(43.983459%, 62.580872%, 77.825928%)" offset="0.332031"/><stop stop-opacity="1" stop-color="rgb(43.612671%, 62.240601%, 77.619934%)" offset="0.335938"/><stop stop-opacity="1" stop-color="rgb(43.240356%, 61.90033%, 77.412415%)" offset="0.339844"/><stop stop-opacity="1" stop-color="rgb(42.869568%, 61.561584%, 77.206421%)" offset="0.34375"/><stop stop-opacity="1" stop-color="rgb(42.497253%, 61.221313%, 76.998901%)" offset="0.347656"/><stop stop-opacity="1" stop-color="rgb(42.126465%, 60.881042%, 76.792908%)" offset="0.351563"/><stop stop-opacity="1" stop-color="rgb(41.679382%, 60.481262%, 76.544189%)" offset="0.355469"/><stop stop-opacity="1" stop-color="rgb(41.2323%, 60.081482%, 76.295471%)" offset="0.359375"/><stop stop-opacity="1" stop-color="rgb(40.603638%, 59.536743%, 75.944519%)" offset="0.363281"/><stop stop-opacity="1" stop-color="rgb(39.974976%, 58.992004%, 75.593567%)" offset="0.367188"/><stop stop-opacity="1" stop-color="rgb(39.344788%, 58.447266%, 75.242615%)" offset="0.371094"/><stop stop-opacity="1" stop-color="rgb(38.716125%, 57.902527%, 74.893188%)" offset="0.375"/><stop stop-opacity="1" stop-color="rgb(38.085938%, 57.357788%, 74.542236%)" offset="0.378906"/><stop stop-opacity="1" stop-color="rgb(37.457275%, 56.813049%, 74.19281%)" offset="0.382812"/><stop stop-opacity="1" stop-color="rgb(36.827087%, 56.268311%, 73.841858%)" offset="0.386719"/><stop stop-opacity="1" stop-color="rgb(36.198425%, 55.723572%, 73.490906%)" offset="0.390625"/><stop stop-opacity="1" stop-color="rgb(35.569763%, 55.178833%, 73.139954%)" offset="0.394531"/><stop stop-opacity="1" stop-color="rgb(34.941101%, 54.634094%, 72.790527%)" offset="0.398437"/><stop stop-opacity="1" stop-color="rgb(34.310913%, 54.089355%, 72.439575%)" offset="0.402344"/><stop stop-opacity="1" stop-color="rgb(33.682251%, 53.544617%, 72.088623%)" offset="0.40625"/><stop stop-opacity="1" stop-color="rgb(33.052063%, 52.999878%, 71.737671%)" offset="0.410156"/><stop stop-opacity="1" stop-color="rgb(32.423401%, 52.455139%, 71.388245%)" offset="0.414062"/><stop stop-opacity="1" stop-color="rgb(31.793213%, 51.9104%, 71.037292%)" offset="0.417969"/><stop stop-opacity="1" stop-color="rgb(31.164551%, 51.365662%, 70.68634%)" offset="0.421875"/><stop stop-opacity="1" stop-color="rgb(30.535889%, 50.820923%, 70.335388%)" offset="0.425781"/><stop stop-opacity="1" stop-color="rgb(29.907227%, 50.276184%, 69.985962%)" offset="0.429688"/><stop stop-opacity="1" stop-color="rgb(29.277039%, 49.731445%, 69.63501%)" offset="0.433594"/><stop stop-opacity="1" stop-color="rgb(28.648376%, 49.186707%, 69.285583%)" offset="0.4375"/><stop stop-opacity="1" stop-color="rgb(28.018188%, 48.641968%, 68.934631%)" offset="0.441406"/><stop stop-opacity="1" stop-color="rgb(27.389526%, 48.097229%, 68.583679%)" offset="0.445312"/><stop stop-opacity="1" stop-color="rgb(26.934814%, 47.7005%, 68.331909%)" offset="0.449219"/><stop stop-opacity="1" stop-color="rgb(26.481628%, 47.305298%, 68.081665%)" offset="0.453125"/><stop stop-opacity="1" stop-color="rgb(26.24054%, 47.088623%, 67.950439%)" offset="0.457031"/><stop stop-opacity="1" stop-color="rgb(26.000977%, 46.873474%, 67.819214%)" offset="0.460938"/><stop stop-opacity="1" stop-color="rgb(25.759888%, 46.658325%, 67.687988%)" offset="0.464844"/><stop stop-opacity="1" stop-color="rgb(25.518799%, 46.443176%, 67.556763%)" offset="0.46875"/><stop stop-opacity="1" stop-color="rgb(25.27771%, 46.228027%, 67.425537%)" offset="0.472656"/><stop stop-opacity="1" stop-color="rgb(25.038147%, 46.012878%, 67.295837%)" offset="0.476563"/><stop stop-opacity="1" stop-color="rgb(24.797058%, 45.797729%, 67.164612%)" offset="0.480469"/><stop stop-opacity="1" stop-color="rgb(24.555969%, 45.582581%, 67.033386%)" offset="0.484375"/><stop stop-opacity="1" stop-color="rgb(24.31488%, 45.365906%, 66.902161%)" offset="0.488281"/><stop stop-opacity="1" stop-color="rgb(24.075317%, 45.150757%, 66.772461%)" offset="0.492188"/><stop stop-opacity="1" stop-color="rgb(23.834229%, 44.935608%, 66.641235%)" offset="0.496094"/><stop stop-opacity="1" stop-color="rgb(23.59314%, 44.720459%, 66.51001%)" offset="0.5"/><stop stop-opacity="1" stop-color="rgb(23.352051%, 44.50531%, 66.378784%)" offset="0.503906"/><stop stop-opacity="1" stop-color="rgb(23.112488%, 44.290161%, 66.247559%)" offset="0.507812"/><stop stop-opacity="1" stop-color="rgb(22.871399%, 44.073486%, 66.116333%)" offset="0.511719"/><stop stop-opacity="1" stop-color="rgb(22.63031%, 43.858337%, 65.986633%)" offset="0.515625"/><stop stop-opacity="1" stop-color="rgb(22.389221%, 43.643188%, 65.855408%)" offset="0.519531"/><stop stop-opacity="1" stop-color="rgb(22.149658%, 43.42804%, 65.724182%)" offset="0.523438"/><stop stop-opacity="1" stop-color="rgb(21.908569%, 43.212891%, 65.592957%)" offset="0.527344"/><stop stop-opacity="1" stop-color="rgb(21.66748%, 42.997742%, 65.463257%)" offset="0.53125"/><stop stop-opacity="1" stop-color="rgb(21.426392%, 42.781067%, 65.332031%)" offset="0.535156"/><stop stop-opacity="1" stop-color="rgb(21.186829%, 42.565918%, 65.200806%)" offset="0.539062"/><stop stop-opacity="1" stop-color="rgb(20.94574%, 42.350769%, 65.06958%)" offset="0.542969"/><stop stop-opacity="1" stop-color="rgb(20.704651%, 42.13562%, 64.93988%)" offset="0.546875"/><stop stop-opacity="1" stop-color="rgb(20.463562%, 41.920471%, 64.808655%)" offset="0.550781"/><stop stop-opacity="1" stop-color="rgb(20.223999%, 41.705322%, 64.677429%)" offset="0.554687"/><stop stop-opacity="1" stop-color="rgb(19.98291%, 41.490173%, 64.546204%)" offset="0.558594"/><stop stop-opacity="1" stop-color="rgb(19.741821%, 41.275024%, 64.414978%)" offset="0.5625"/><stop stop-opacity="1" stop-color="rgb(19.500732%, 41.05835%, 64.283752%)" offset="0.566406"/><stop stop-opacity="1" stop-color="rgb(19.261169%, 40.843201%, 64.154053%)" offset="0.570312"/><stop stop-opacity="1" stop-color="rgb(19.020081%, 40.628052%, 64.022827%)" offset="0.574219"/><stop stop-opacity="1" stop-color="rgb(18.778992%, 40.412903%, 63.891602%)" offset="0.578125"/><stop stop-opacity="1" stop-color="rgb(18.537903%, 40.197754%, 63.760376%)" offset="0.582031"/><stop stop-opacity="1" stop-color="rgb(18.29834%, 39.982605%, 63.630676%)" offset="0.585938"/><stop stop-opacity="1" stop-color="rgb(18.057251%, 39.76593%, 63.499451%)" offset="0.589844"/><stop stop-opacity="1" stop-color="rgb(17.816162%, 39.550781%, 63.368225%)" offset="0.59375"/><stop stop-opacity="1" stop-color="rgb(17.575073%, 39.335632%, 63.237%)" offset="0.597656"/><stop stop-opacity="1" stop-color="rgb(17.33551%, 39.120483%, 63.105774%)" offset="0.601562"/><stop stop-opacity="1" stop-color="rgb(17.094421%, 38.905334%, 62.974548%)" offset="0.605469"/><stop stop-opacity="1" stop-color="rgb(16.853333%, 38.690186%, 62.844849%)" offset="0.609375"/><stop stop-opacity="1" stop-color="rgb(16.612244%, 38.473511%, 62.713623%)" offset="0.613281"/><stop stop-opacity="1" stop-color="rgb(16.372681%, 38.258362%, 62.582397%)" offset="0.617188"/><stop stop-opacity="1" stop-color="rgb(16.131592%, 38.043213%, 62.451172%)" offset="0.621094"/><stop stop-opacity="1" stop-color="rgb(15.890503%, 37.828064%, 62.321472%)" offset="0.625"/><stop stop-opacity="1" stop-color="rgb(15.649414%, 37.612915%, 62.190247%)" offset="0.628906"/><stop stop-opacity="1" stop-color="rgb(15.409851%, 37.397766%, 62.059021%)" offset="0.632812"/><stop stop-opacity="1" stop-color="rgb(15.086365%, 37.103271%, 61.885071%)" offset="0.636719"/><stop stop-opacity="1" stop-color="rgb(14.764404%, 36.810303%, 61.712646%)" offset="0.640625"/><stop stop-opacity="1" stop-color="rgb(14.41803%, 36.49292%, 61.526489%)" offset="0.644531"/><stop stop-opacity="1" stop-color="rgb(14.071655%, 36.177063%, 61.340332%)" offset="0.648438"/><stop stop-opacity="1" stop-color="rgb(13.725281%, 35.85968%, 61.154175%)" offset="0.652344"/><stop stop-opacity="1" stop-color="rgb(13.378906%, 35.543823%, 60.969543%)" offset="0.65625"/><stop stop-opacity="1" stop-color="rgb(13.032532%, 35.22644%, 60.783386%)" offset="0.660156"/><stop stop-opacity="1" stop-color="rgb(12.687683%, 34.910583%, 60.597229%)" offset="0.664062"/><stop stop-opacity="1" stop-color="rgb(12.341309%, 34.593201%, 60.411072%)" offset="0.667969"/><stop stop-opacity="1" stop-color="rgb(11.994934%, 34.277344%, 60.22644%)" offset="0.671875"/><stop stop-opacity="1" stop-color="rgb(11.64856%, 33.959961%, 60.040283%)" offset="0.675781"/><stop stop-opacity="1" stop-color="rgb(11.302185%, 33.642578%, 59.854126%)" offset="0.679688"/><stop stop-opacity="1" stop-color="rgb(10.955811%, 33.325195%, 59.667969%)" offset="0.683594"/><stop stop-opacity="1" stop-color="rgb(10.609436%, 33.009338%, 59.483337%)" offset="0.6875"/><stop stop-opacity="1" stop-color="rgb(10.263062%, 32.691956%, 59.29718%)" offset="0.691406"/><stop stop-opacity="1" stop-color="rgb(9.916687%, 32.376099%, 59.111023%)" offset="0.695313"/><stop stop-opacity="1" stop-color="rgb(9.570312%, 32.058716%, 58.924866%)" offset="0.699219"/><stop stop-opacity="1" stop-color="rgb(9.223938%, 31.742859%, 58.738708%)" offset="0.703125"/><stop stop-opacity="1" stop-color="rgb(8.877563%, 31.425476%, 58.552551%)" offset="0.707031"/><stop stop-opacity="1" stop-color="rgb(8.531189%, 31.109619%, 58.36792%)" offset="0.710938"/><stop stop-opacity="1" stop-color="rgb(8.184814%, 30.792236%, 58.181763%)" offset="0.714844"/><stop stop-opacity="1" stop-color="rgb(7.83844%, 30.476379%, 57.995605%)" offset="0.71875"/><stop stop-opacity="1" stop-color="rgb(7.492065%, 30.158997%, 57.809448%)" offset="0.722656"/><stop stop-opacity="1" stop-color="rgb(7.145691%, 29.84314%, 57.624817%)" offset="0.726562"/><stop stop-opacity="1" stop-color="rgb(7.029724%, 29.736328%, 57.559204%)" offset="0.734375"/><stop stop-opacity="1" stop-color="rgb(6.814575%, 29.537964%, 57.435608%)" offset="0.742188"/><stop stop-opacity="1" stop-color="rgb(6.616211%, 29.356384%, 57.321167%)" offset="0.75"/><stop stop-opacity="1" stop-color="rgb(6.417847%, 29.174805%, 57.206726%)" offset="0.757812"/><stop stop-opacity="1" stop-color="rgb(6.219482%, 28.993225%, 57.093811%)" offset="0.765625"/><stop stop-opacity="1" stop-color="rgb(6.021118%, 28.811646%, 56.97937%)" offset="0.773438"/><stop stop-opacity="1" stop-color="rgb(5.822754%, 28.630066%, 56.864929%)" offset="0.78125"/><stop stop-opacity="1" stop-color="rgb(5.62439%, 28.448486%, 56.752014%)" offset="0.789062"/><stop stop-opacity="1" stop-color="rgb(5.426025%, 28.266907%, 56.637573%)" offset="0.796875"/><stop stop-opacity="1" stop-color="rgb(5.227661%, 28.085327%, 56.523132%)" offset="0.804687"/><stop stop-opacity="1" stop-color="rgb(5.029297%, 27.903748%, 56.408691%)" offset="0.8125"/><stop stop-opacity="1" stop-color="rgb(4.829407%, 27.722168%, 56.295776%)" offset="0.820312"/><stop stop-opacity="1" stop-color="rgb(4.631042%, 27.540588%, 56.181335%)" offset="0.828125"/><stop stop-opacity="1" stop-color="rgb(4.432678%, 27.359009%, 56.066895%)" offset="0.835938"/><stop stop-opacity="1" stop-color="rgb(4.234314%, 27.177429%, 55.952454%)" offset="0.84375"/><stop stop-opacity="1" stop-color="rgb(4.03595%, 26.99585%, 55.839539%)" offset="0.851562"/><stop stop-opacity="1" stop-color="rgb(3.837585%, 26.81427%, 55.725098%)" offset="0.859375"/><stop stop-opacity="1" stop-color="rgb(3.639221%, 26.63269%, 55.610657%)" offset="0.867188"/><stop stop-opacity="1" stop-color="rgb(3.440857%, 26.451111%, 55.497742%)" offset="0.875"/><stop stop-opacity="1" stop-color="rgb(3.242493%, 26.269531%, 55.383301%)" offset="0.882812"/><stop stop-opacity="1" stop-color="rgb(3.044128%, 26.087952%, 55.26886%)" offset="0.890625"/><stop stop-opacity="1" stop-color="rgb(2.845764%, 25.906372%, 55.154419%)" offset="0.898438"/><stop stop-opacity="1" stop-color="rgb(2.6474%, 25.724792%, 55.041504%)" offset="0.90625"/><stop stop-opacity="1" stop-color="rgb(2.388%, 25.50354%, 54.899597%)" offset="0.915236"/><stop stop-opacity="1" stop-color="rgb(2.229309%, 25.372314%, 54.814148%)" offset="0.921875"/><stop stop-opacity="1" stop-color="rgb(2.093506%, 25.270081%, 54.747009%)" offset="0.9375"/><stop stop-opacity="1" stop-color="rgb(1.823425%, 25.067139%, 54.611206%)" offset="0.953125"/><stop stop-opacity="1" stop-color="rgb(1.553345%, 24.864197%, 54.476929%)" offset="0.96875"/><stop stop-opacity="1" stop-color="rgb(1.283264%, 24.662781%, 54.341125%)" offset="0.984375"/><stop stop-opacity="1" stop-color="rgb(1.013184%, 24.459839%, 54.205322%)" offset="1"/></linearGradient></defs><g clip-path="url(#3b5c78207c)"><g clip-path="url(#79588ea930)"><path fill="url(#6585a1fd22)" d="M 243.027344 225.207031 L 243.027344 486.957031 L 566.972656 486.957031 L 566.972656 225.207031 Z M 243.027344 225.207031 " fill-rule="nonzero"/></g></g></svg>