<svg xmlns="http://www.w3.org/2000/svg" xmlns:xlink="http://www.w3.org/1999/xlink" width="1080" zoomAndPan="magnify" viewBox="0 0 810 809.999993" height="1080" preserveAspectRatio="xMidYMid meet" version="1.0"><defs><clipPath id="a24860c6db"><path d="M 243 274.183594 L 567 274.183594 L 567 535.933594 L 243 535.933594 Z M 243 274.183594 " clip-rule="nonzero"/></clipPath><clipPath id="683ab33bf5"><path d="M 395.027344 499.355469 C 389.003906 496.511719 382.632812 491.179688 382.632812 483.417969 C 382.632812 475.660156 383.324219 478.429688 384.433594 476.699219 C 385.816406 474.203125 388.3125 472.054688 390.457031 470.324219 C 392.257812 468.9375 391.84375 469.285156 393.296875 469.976562 C 395.445312 470.671875 397.519531 471.015625 399.667969 471.777344 C 399.320312 471.777344 397.867188 472.125 397.175781 472.472656 C 392.535156 474.273438 386.925781 478.5 386.925781 484.179688 C 386.925781 489.863281 387.964844 489.167969 389.417969 490.902344 C 390.457031 491.941406 391.21875 493.050781 392.257812 493.742188 C 393.644531 494.78125 395.097656 495.890625 396.898438 496.582031 C 397.9375 497.273438 401.882812 498.730469 401.882812 498.730469 C 402.230469 499.078125 401.882812 499.078125 402.230469 499.078125 C 401.191406 499.421875 399.738281 499.769531 398.699219 500.117188 C 398.46875 500.347656 398.121094 500.460938 397.660156 500.460938 L 395.167969 499.421875 Z M 414.140625 503.996094 C 413.792969 503.648438 413.449219 503.304688 413.101562 503.304688 C 412.410156 502.957031 412.410156 502.609375 411.71875 502.957031 C 410.679688 503.304688 409.917969 503.648438 408.878906 503.648438 C 409.222656 503.996094 410.679688 504.6875 411.371094 504.6875 C 412.0625 505.035156 412.753906 505.726562 413.515625 506.074219 C 418.503906 509.261719 420.234375 514.597656 418.503906 520.625 C 417.117188 525.613281 413.863281 530.183594 409.984375 533.023438 C 409.640625 533.71875 408.945312 534.0625 408.183594 534.410156 C 407.492188 534.757812 405.691406 535.449219 405.691406 535.796875 C 407.078125 535.449219 409.570312 533.996094 410.679688 532.957031 C 411.71875 532.261719 412.824219 531.15625 413.863281 530.460938 C 414.554688 529.421875 415.664062 528.3125 416.355469 527.273438 C 420.582031 521.246094 422.726562 513.765625 418.15625 507.390625 C 417.117188 506.003906 415.664062 504.894531 414.28125 503.855469 Z M 383.671875 429.863281 C 385.054688 430.210938 384.363281 430.210938 386.164062 429.171875 C 388.65625 427.785156 391.148438 426.675781 393.988281 425.636719 C 395.027344 425.636719 396.136719 425.289062 396.828125 424.945312 C 397.519531 424.945312 399.667969 424.25 400.015625 424.25 C 399.667969 424.25 396.828125 423.558594 396.136719 423.210938 C 392.949219 422.519531 389.074219 420.71875 386.234375 419.332031 C 383.394531 417.53125 377.023438 413.652344 378.0625 408.664062 C 378.410156 407.625 379.449219 406.515625 379.863281 405.820312 C 380.554688 405.128906 381.664062 403.675781 382.355469 403.328125 C 385.542969 400.488281 389.765625 397.992188 394.058594 396.261719 C 395.097656 395.914062 396.207031 395.222656 397.246094 394.875 L 400.777344 393.488281 C 398.628906 393.144531 396.550781 392.449219 394.75 392.105469 C 392.605469 391.757812 390.527344 391.066406 388.726562 390.71875 C 386.578125 390.371094 384.503906 390.027344 382.355469 389.332031 C 382.007812 389.332031 381.316406 388.988281 380.972656 388.988281 C 380.625 388.988281 378.132812 390.789062 377.785156 391.132812 C 377.09375 391.828125 374.253906 393.976562 373.5625 394.667969 C 372.523438 396.054688 371.414062 397.160156 370.375 398.894531 C 365.042969 405.960938 365.042969 413.789062 370.722656 420.855469 C 372.523438 423.351562 375.707031 425.5 378.894531 427.578125 C 380.277344 428.269531 382.078125 428.960938 383.878906 430.070312 Z M 404.238281 505.449219 L 404.929688 533.441406 L 405.277344 533.441406 L 405.96875 505.035156 L 404.167969 505.382812 Z M 425.84375 432.703125 C 425.613281 432.472656 425.265625 432.355469 424.804688 432.355469 C 423.421875 433.050781 421.964844 433.398438 420.582031 433.742188 C 418.78125 434.4375 415.941406 435.128906 413.863281 435.542969 C 413.515625 435.542969 412.0625 435.542969 411.71875 435.890625 C 415.59375 436.582031 419.542969 438.386719 421.964844 440.53125 C 424.457031 441.917969 427.644531 445.867188 426.605469 450.441406 C 424.457031 457.160156 416.703125 461.457031 410.332031 463.1875 L 409.984375 463.535156 L 409.640625 463.535156 C 412.824219 464.574219 415.316406 465.335938 417.8125 466.722656 C 418.273438 466.953125 418.871094 466.835938 419.613281 466.375 C 421.757812 465.683594 423.144531 464.988281 425.289062 463.535156 C 429.167969 460.695312 433.460938 455.359375 434.152344 450.441406 C 435.191406 445.453125 433.460938 441.226562 430.96875 437.691406 C 429.582031 435.890625 427.78125 434.160156 425.980469 432.703125 Z M 345.722656 293.308594 L 259.578125 297.949219 C 261.726562 305.429688 270.242188 314.644531 281.183594 312.84375 L 351.679688 296.492188 L 345.652344 293.308594 Z M 346.070312 287.972656 L 394.957031 314.230469 L 359.503906 281.25 C 359.15625 280.90625 352.785156 274.183594 336.097656 274.183594 L 243.027344 274.183594 C 243.375 282.359375 250.089844 292.613281 261.101562 292.613281 L 346.140625 287.972656 Z M 358.464844 300.027344 L 284.367188 317.417969 C 287.554688 323.445312 295.726562 330.164062 304.589844 328.78125 L 371.207031 306.816406 L 358.464844 300.097656 Z M 377.230469 309.933594 L 322.316406 328.363281 C 325.503906 334.046875 335.40625 340.417969 343.578125 336.886719 L 389.28125 316.308594 Z M 438.863281 306.746094 L 505.480469 328.710938 C 513.996094 330.097656 522.515625 323.375 525.699219 317.347656 L 451.257812 299.957031 L 438.863281 306.679688 Z M 458.320312 296.492188 L 528.816406 312.84375 C 539.480469 314.644531 548.273438 305.363281 550.074219 297.949219 L 464.347656 293.308594 Z M 420.375 316.378906 L 466.421875 336.957031 C 474.59375 340.488281 484.152344 334.113281 487.335938 328.433594 L 432.421875 310.003906 Z M 439.832031 398.339844 L 436.648438 394.460938 C 432.769531 390.578125 428.820312 388.433594 424.25 385.589844 C 421.410156 384.207031 417.535156 382.40625 414.695312 380.949219 C 411.164062 379.910156 407.632812 378.800781 404.03125 377.761719 C 394.128906 374.574219 378.546875 370.695312 370.375 366.054688 C 361.859375 361.410156 361.859375 352.960938 370.375 349.355469 C 375.015625 347.554688 376.054688 349.703125 381.039062 349.703125 C 386.71875 349.355469 396.273438 344.023438 396.273438 339.449219 C 396.273438 334.875 388.101562 330.925781 379.585938 330.582031 C 374.945312 330.582031 372.523438 333.421875 369.683594 334.460938 C 355.488281 339.101562 344.199219 347.972656 347.730469 364.253906 C 348.769531 368.132812 350.917969 371.734375 354.101562 374.507812 C 354.792969 375.199219 355.902344 375.890625 356.59375 376.308594 C 359.089844 378.457031 361.582031 379.839844 364.765625 381.296875 C 374.667969 385.9375 383.878906 387.324219 394.890625 389.816406 C 398.421875 390.855469 406.9375 392.660156 410.125 393.699219 C 414.003906 395.082031 420.027344 397.925781 423.558594 400.070312 C 424.945312 400.765625 426.050781 401.871094 427.089844 402.566406 C 427.78125 403.257812 428.128906 403.605469 428.890625 404.367188 C 430.277344 406.167969 432.421875 407.902344 432.078125 410.742188 C 431.382812 413.929688 428.542969 416.074219 426.050781 417.808594 C 425.011719 418.5 423.558594 419.195312 422.171875 419.957031 C 419.335938 421.339844 415.804688 422.796875 412.617188 423.488281 C 409.085938 424.527344 405.554688 424.875 401.953125 425.984375 C 392.050781 427.785156 382.078125 431.664062 377.507812 440.1875 C 376.125 443.027344 375.363281 447.253906 376.125 450.855469 C 376.816406 454.042969 378.960938 457.578125 380.347656 459.378906 C 384.570312 464.367188 390.25 467.207031 396.621094 468.9375 C 403.683594 471.085938 411.164062 470.738281 416.839844 474.621094 C 419.335938 476.003906 421.828125 478.152344 422.867188 481.6875 C 423.90625 485.566406 422.171875 489.167969 420.375 491.246094 C 415.734375 496.234375 410.125 498.316406 403.683594 500.460938 C 399.804688 501.847656 397.660156 502.609375 394.820312 504.6875 C 392.328125 506.488281 390.179688 509.332031 389.488281 512.515625 C 388.449219 517.851562 390.527344 523.1875 393.367188 527.066406 C 394.40625 528.867188 395.167969 529.5625 396.550781 530.601562 C 397.9375 531.984375 401.539062 535.242188 404.375 535.933594 C 404.375 535.589844 402.578125 534.894531 401.882812 534.550781 C 400.082031 533.511719 397.660156 531.707031 396.207031 529.5625 C 394.40625 527.414062 392.328125 524.226562 391.21875 520.691406 C 390.179688 516.050781 390.527344 512.515625 393.019531 509.332031 C 395.167969 506.488281 398.007812 504.6875 401.539062 503.648438 C 407.5625 501.847656 414.28125 500.460938 419.265625 496.929688 C 420.648438 495.890625 422.105469 494.78125 423.144531 493.742188 C 424.945312 491.246094 425.980469 489.863281 427.019531 487.019531 C 428.058594 482.378906 426.675781 478.5 424.875 475.660156 C 423.074219 473.164062 420.234375 470.671875 417.464844 468.9375 C 411.09375 465.40625 402.921875 465.058594 396.207031 462.21875 C 392.671875 460.832031 389.488281 459.03125 387.339844 456.882812 C 387.339844 456.535156 386.996094 456.191406 386.648438 455.84375 C 385.957031 454.804688 384.847656 454.042969 384.503906 452.65625 C 381.316406 446.976562 384.847656 441.988281 389.835938 439.148438 C 396.207031 435.613281 404.375 434.921875 412.546875 433.8125 C 421.066406 432.011719 429.238281 429.171875 435.261719 424.597656 C 437.410156 422.796875 438.792969 421.757812 440.59375 419.261719 C 442.394531 416.421875 444.125 412.542969 443.777344 408.246094 C 443.433594 404.019531 441.632812 400.765625 439.902344 398.339844 Z M 473.488281 274.183594 C 457.214844 274.183594 450.425781 280.90625 450.082031 281.25 L 414.625 314.230469 L 463.859375 287.972656 L 548.898438 292.613281 C 559.910156 292.269531 566.625 282.359375 566.972656 274.183594 L 473.417969 274.183594 Z M 439.832031 334.460938 C 437.339844 333.421875 434.847656 330.582031 430.277344 330.582031 C 421.757812 330.925781 413.585938 333.769531 413.242188 339.449219 C 413.242188 344.089844 422.796875 349.355469 428.820312 349.703125 C 433.808594 349.703125 434.847656 347.554688 439.484375 349.355469 C 447.65625 352.890625 448.003906 361.410156 439.140625 366.054688 C 433.113281 369.585938 424.25 372.429688 417.1875 374.230469 C 414.347656 374.921875 411.507812 375.613281 408.671875 376.378906 L 410.054688 305.085938 C 413.242188 303.285156 415.042969 300.097656 415.042969 296.5625 C 415.042969 290.882812 410.402344 286.308594 404.792969 286.308594 C 399.183594 286.308594 394.890625 290.953125 394.890625 296.5625 C 394.890625 302.175781 396.691406 303.285156 399.875 305.085938 L 401.261719 374.644531 L 404.445312 375.683594 L 407.976562 376.378906 C 410.46875 377.417969 412.964844 378.179688 415.386719 378.871094 C 418.574219 380.257812 422.449219 382.058594 425.289062 383.859375 C 427.089844 384.550781 428.476562 385.660156 429.929688 386.699219 C 430.277344 386.699219 430.96875 386.355469 431.730469 386.007812 C 434.914062 385.316406 437.753906 384.621094 440.59375 383.167969 C 448.765625 380.324219 460.050781 373.953125 462.199219 364.390625 C 465.386719 348.039062 454.027344 339.171875 439.902344 334.597656 Z M 407.5625 422.449219 L 408.253906 395.5 C 406.109375 395.152344 403.613281 394.460938 401.539062 394.113281 L 402.230469 423.558594 C 404.03125 423.210938 405.761719 422.867188 407.5625 422.519531 Z M 406.523438 462.910156 L 407.214844 436.652344 C 405.832031 437 404.03125 437.347656 402.578125 437.347656 L 403.269531 461.800781 C 404.308594 462.148438 405.414062 462.496094 406.453125 462.839844 Z M 405.832031 497.34375 L 406.523438 473.234375 C 405.484375 473.234375 404.375 472.886719 403.339844 472.886719 L 404.03125 498.105469 L 405.832031 497.414062 Z M 405.832031 497.34375 " clip-rule="nonzero"/></clipPath><linearGradient x1="279.44414" gradientTransform="matrix(0.692486, 0, 0, 0.692827, 232.017061, 231.784008)" y1="454.277484" x2="248.74096" gradientUnits="userSpaceOnUse" y2="43.784469" id="77e3ee08ea"><stop stop-opacity="1" stop-color="rgb(79.199219%, 94.099426%, 97.299194%)" offset="0"/><stop stop-opacity="1" stop-color="rgb(79.199219%, 94.099426%, 97.299194%)" offset="0.0625"/><stop stop-opacity="1" stop-color="rgb(79.199219%, 94.099426%, 97.299194%)" offset="0.078125"/><stop stop-opacity="1" stop-color="rgb(78.514099%, 93.496704%, 96.922302%)" offset="0.0820312"/><stop stop-opacity="1" stop-color="rgb(77.830505%, 92.893982%, 96.546936%)" offset="0.0859375"/><stop stop-opacity="1" stop-color="rgb(76.985168%, 92.150879%, 96.081543%)" offset="0.0898437"/><stop stop-opacity="1" stop-color="rgb(76.141357%, 91.407776%, 95.617676%)" offset="0.09375"/><stop stop-opacity="1" stop-color="rgb(75.296021%, 90.664673%, 95.152283%)" offset="0.0976562"/><stop stop-opacity="1" stop-color="rgb(74.452209%, 89.92157%, 94.688416%)" offset="0.101562"/><stop stop-opacity="1" stop-color="rgb(73.606873%, 89.178467%, 94.223022%)" offset="0.105469"/><stop stop-opacity="1" stop-color="rgb(72.763062%, 88.435364%, 93.759155%)" offset="0.109375"/><stop stop-opacity="1" stop-color="rgb(71.917725%, 87.690735%, 93.293762%)" offset="0.113281"/><stop stop-opacity="1" stop-color="rgb(71.073914%, 86.947632%, 92.829895%)" offset="0.117187"/><stop stop-opacity="1" stop-color="rgb(70.228577%, 86.204529%, 92.364502%)" offset="0.121094"/><stop stop-opacity="1" stop-color="rgb(69.384766%, 85.461426%, 91.900635%)" offset="0.125"/><stop stop-opacity="1" stop-color="rgb(68.539429%, 84.718323%, 91.435242%)" offset="0.128906"/><stop stop-opacity="1" stop-color="rgb(67.694092%, 83.97522%, 90.971375%)" offset="0.132812"/><stop stop-opacity="1" stop-color="rgb(66.848755%, 83.232117%, 90.505981%)" offset="0.136719"/><stop stop-opacity="1" stop-color="rgb(66.004944%, 82.489014%, 90.042114%)" offset="0.140625"/><stop stop-opacity="1" stop-color="rgb(65.159607%, 81.745911%, 89.578247%)" offset="0.144531"/><stop stop-opacity="1" stop-color="rgb(64.315796%, 81.002808%, 89.11438%)" offset="0.148437"/><stop stop-opacity="1" stop-color="rgb(63.470459%, 80.258179%, 88.648987%)" offset="0.152344"/><stop stop-opacity="1" stop-color="rgb(62.626648%, 79.515076%, 88.18512%)" offset="0.15625"/><stop stop-opacity="1" stop-color="rgb(61.781311%, 78.771973%, 87.719727%)" offset="0.160156"/><stop stop-opacity="1" stop-color="rgb(60.9375%, 78.02887%, 87.255859%)" offset="0.164062"/><stop stop-opacity="1" stop-color="rgb(60.092163%, 77.285767%, 86.790466%)" offset="0.167969"/><stop stop-opacity="1" stop-color="rgb(59.248352%, 76.542664%, 86.326599%)" offset="0.171875"/><stop stop-opacity="1" stop-color="rgb(58.862305%, 76.190186%, 86.11145%)" offset="0.175781"/><stop stop-opacity="1" stop-color="rgb(58.477783%, 75.839233%, 85.897827%)" offset="0.179687"/><stop stop-opacity="1" stop-color="rgb(58.105469%, 75.498962%, 85.690308%)" offset="0.183594"/><stop stop-opacity="1" stop-color="rgb(57.73468%, 75.158691%, 85.484314%)" offset="0.1875"/><stop stop-opacity="1" stop-color="rgb(57.362366%, 74.81842%, 85.276794%)" offset="0.191406"/><stop stop-opacity="1" stop-color="rgb(56.991577%, 74.479675%, 85.069275%)" offset="0.195312"/><stop stop-opacity="1" stop-color="rgb(56.619263%, 74.139404%, 84.861755%)" offset="0.199219"/><stop stop-opacity="1" stop-color="rgb(56.248474%, 73.799133%, 84.655762%)" offset="0.203125"/><stop stop-opacity="1" stop-color="rgb(55.87616%, 73.458862%, 84.448242%)" offset="0.207031"/><stop stop-opacity="1" stop-color="rgb(55.505371%, 73.120117%, 84.242249%)" offset="0.210937"/><stop stop-opacity="1" stop-color="rgb(55.133057%, 72.779846%, 84.034729%)" offset="0.214844"/><stop stop-opacity="1" stop-color="rgb(54.760742%, 72.439575%, 83.828735%)" offset="0.21875"/><stop stop-opacity="1" stop-color="rgb(54.388428%, 72.099304%, 83.621216%)" offset="0.222656"/><stop stop-opacity="1" stop-color="rgb(54.017639%, 71.760559%, 83.413696%)" offset="0.226562"/><stop stop-opacity="1" stop-color="rgb(53.645325%, 71.420288%, 83.206177%)" offset="0.230469"/><stop stop-opacity="1" stop-color="rgb(53.274536%, 71.080017%, 83.000183%)" offset="0.234375"/><stop stop-opacity="1" stop-color="rgb(52.902222%, 70.739746%, 82.792664%)" offset="0.238281"/><stop stop-opacity="1" stop-color="rgb(52.531433%, 70.399475%, 82.58667%)" offset="0.242188"/><stop stop-opacity="1" stop-color="rgb(52.159119%, 70.059204%, 82.37915%)" offset="0.246094"/><stop stop-opacity="1" stop-color="rgb(51.78833%, 69.720459%, 82.173157%)" offset="0.25"/><stop stop-opacity="1" stop-color="rgb(51.416016%, 69.380188%, 81.965637%)" offset="0.253906"/><stop stop-opacity="1" stop-color="rgb(51.045227%, 69.039917%, 81.759644%)" offset="0.257812"/><stop stop-opacity="1" stop-color="rgb(50.672913%, 68.699646%, 81.552124%)" offset="0.261719"/><stop stop-opacity="1" stop-color="rgb(50.302124%, 68.360901%, 81.344604%)" offset="0.265625"/><stop stop-opacity="1" stop-color="rgb(49.92981%, 68.02063%, 81.137085%)" offset="0.269531"/><stop stop-opacity="1" stop-color="rgb(49.559021%, 67.680359%, 80.931091%)" offset="0.273437"/><stop stop-opacity="1" stop-color="rgb(49.186707%, 67.340088%, 80.723572%)" offset="0.277344"/><stop stop-opacity="1" stop-color="rgb(48.815918%, 66.999817%, 80.517578%)" offset="0.28125"/><stop stop-opacity="1" stop-color="rgb(48.443604%, 66.659546%, 80.310059%)" offset="0.285156"/><stop stop-opacity="1" stop-color="rgb(48.072815%, 66.320801%, 80.104065%)" offset="0.289062"/><stop stop-opacity="1" stop-color="rgb(47.7005%, 65.98053%, 79.896545%)" offset="0.292969"/><stop stop-opacity="1" stop-color="rgb(47.328186%, 65.640259%, 79.689026%)" offset="0.296875"/><stop stop-opacity="1" stop-color="rgb(46.955872%, 65.299988%, 79.481506%)" offset="0.300781"/><stop stop-opacity="1" stop-color="rgb(46.585083%, 64.961243%, 79.275513%)" offset="0.304688"/><stop stop-opacity="1" stop-color="rgb(46.212769%, 64.620972%, 79.067993%)" offset="0.308594"/><stop stop-opacity="1" stop-color="rgb(45.84198%, 64.280701%, 78.862%)" offset="0.3125"/><stop stop-opacity="1" stop-color="rgb(45.469666%, 63.94043%, 78.65448%)" offset="0.316406"/><stop stop-opacity="1" stop-color="rgb(45.098877%, 63.600159%, 78.448486%)" offset="0.320312"/><stop stop-opacity="1" stop-color="rgb(44.726562%, 63.259888%, 78.240967%)" offset="0.324219"/><stop stop-opacity="1" stop-color="rgb(44.355774%, 62.921143%, 78.033447%)" offset="0.328125"/><stop stop-opacity="1" stop-color="rgb(43.983459%, 62.580872%, 77.825928%)" offset="0.332031"/><stop stop-opacity="1" stop-color="rgb(43.612671%, 62.240601%, 77.619934%)" offset="0.335938"/><stop stop-opacity="1" stop-color="rgb(43.240356%, 61.90033%, 77.412415%)" offset="0.339844"/><stop stop-opacity="1" stop-color="rgb(42.869568%, 61.561584%, 77.206421%)" offset="0.34375"/><stop stop-opacity="1" stop-color="rgb(42.497253%, 61.221313%, 76.998901%)" offset="0.347656"/><stop stop-opacity="1" stop-color="rgb(42.126465%, 60.881042%, 76.792908%)" offset="0.351562"/><stop stop-opacity="1" stop-color="rgb(41.679382%, 60.481262%, 76.544189%)" offset="0.355469"/><stop stop-opacity="1" stop-color="rgb(41.2323%, 60.081482%, 76.295471%)" offset="0.359375"/><stop stop-opacity="1" stop-color="rgb(40.603638%, 59.536743%, 75.944519%)" offset="0.363281"/><stop stop-opacity="1" stop-color="rgb(39.974976%, 58.992004%, 75.593567%)" offset="0.367187"/><stop stop-opacity="1" stop-color="rgb(39.344788%, 58.447266%, 75.242615%)" offset="0.371094"/><stop stop-opacity="1" stop-color="rgb(38.716125%, 57.902527%, 74.893188%)" offset="0.375"/><stop stop-opacity="1" stop-color="rgb(38.085938%, 57.357788%, 74.542236%)" offset="0.378906"/><stop stop-opacity="1" stop-color="rgb(37.457275%, 56.813049%, 74.19281%)" offset="0.382812"/><stop stop-opacity="1" stop-color="rgb(36.827087%, 56.268311%, 73.841858%)" offset="0.386719"/><stop stop-opacity="1" stop-color="rgb(36.198425%, 55.723572%, 73.490906%)" offset="0.390625"/><stop stop-opacity="1" stop-color="rgb(35.569763%, 55.178833%, 73.139954%)" offset="0.394531"/><stop stop-opacity="1" stop-color="rgb(34.941101%, 54.634094%, 72.790527%)" offset="0.398438"/><stop stop-opacity="1" stop-color="rgb(34.310913%, 54.089355%, 72.439575%)" offset="0.402344"/><stop stop-opacity="1" stop-color="rgb(33.682251%, 53.544617%, 72.088623%)" offset="0.40625"/><stop stop-opacity="1" stop-color="rgb(33.052063%, 52.999878%, 71.737671%)" offset="0.410156"/><stop stop-opacity="1" stop-color="rgb(32.423401%, 52.455139%, 71.388245%)" offset="0.414062"/><stop stop-opacity="1" stop-color="rgb(31.793213%, 51.9104%, 71.037292%)" offset="0.417969"/><stop stop-opacity="1" stop-color="rgb(31.164551%, 51.365662%, 70.68634%)" offset="0.421875"/><stop stop-opacity="1" stop-color="rgb(30.535889%, 50.820923%, 70.335388%)" offset="0.425781"/><stop stop-opacity="1" stop-color="rgb(29.907227%, 50.276184%, 69.985962%)" offset="0.429688"/><stop stop-opacity="1" stop-color="rgb(29.277039%, 49.731445%, 69.63501%)" offset="0.433594"/><stop stop-opacity="1" stop-color="rgb(28.648376%, 49.186707%, 69.285583%)" offset="0.4375"/><stop stop-opacity="1" stop-color="rgb(28.018188%, 48.641968%, 68.934631%)" offset="0.441406"/><stop stop-opacity="1" stop-color="rgb(27.389526%, 48.097229%, 68.583679%)" offset="0.445312"/><stop stop-opacity="1" stop-color="rgb(26.934814%, 47.7005%, 68.331909%)" offset="0.449219"/><stop stop-opacity="1" stop-color="rgb(26.481628%, 47.305298%, 68.081665%)" offset="0.453125"/><stop stop-opacity="1" stop-color="rgb(26.24054%, 47.088623%, 67.950439%)" offset="0.457031"/><stop stop-opacity="1" stop-color="rgb(26.000977%, 46.873474%, 67.819214%)" offset="0.460937"/><stop stop-opacity="1" stop-color="rgb(25.759888%, 46.658325%, 67.687988%)" offset="0.464844"/><stop stop-opacity="1" stop-color="rgb(25.518799%, 46.443176%, 67.556763%)" offset="0.46875"/><stop stop-opacity="1" stop-color="rgb(25.27771%, 46.228027%, 67.425537%)" offset="0.472656"/><stop stop-opacity="1" stop-color="rgb(25.038147%, 46.012878%, 67.295837%)" offset="0.476562"/><stop stop-opacity="1" stop-color="rgb(24.797058%, 45.797729%, 67.164612%)" offset="0.480469"/><stop stop-opacity="1" stop-color="rgb(24.555969%, 45.582581%, 67.033386%)" offset="0.484375"/><stop stop-opacity="1" stop-color="rgb(24.31488%, 45.365906%, 66.902161%)" offset="0.488281"/><stop stop-opacity="1" stop-color="rgb(24.075317%, 45.150757%, 66.772461%)" offset="0.492187"/><stop stop-opacity="1" stop-color="rgb(23.834229%, 44.935608%, 66.641235%)" offset="0.496094"/><stop stop-opacity="1" stop-color="rgb(23.59314%, 44.720459%, 66.51001%)" offset="0.5"/><stop stop-opacity="1" stop-color="rgb(23.352051%, 44.50531%, 66.378784%)" offset="0.503906"/><stop stop-opacity="1" stop-color="rgb(23.112488%, 44.290161%, 66.247559%)" offset="0.507812"/><stop stop-opacity="1" stop-color="rgb(22.871399%, 44.073486%, 66.116333%)" offset="0.511719"/><stop stop-opacity="1" stop-color="rgb(22.63031%, 43.858337%, 65.986633%)" offset="0.515625"/><stop stop-opacity="1" stop-color="rgb(22.389221%, 43.643188%, 65.855408%)" offset="0.519531"/><stop stop-opacity="1" stop-color="rgb(22.149658%, 43.42804%, 65.724182%)" offset="0.523438"/><stop stop-opacity="1" stop-color="rgb(21.908569%, 43.212891%, 65.592957%)" offset="0.527344"/><stop stop-opacity="1" stop-color="rgb(21.66748%, 42.997742%, 65.463257%)" offset="0.53125"/><stop stop-opacity="1" stop-color="rgb(21.426392%, 42.781067%, 65.332031%)" offset="0.535156"/><stop stop-opacity="1" stop-color="rgb(21.186829%, 42.565918%, 65.200806%)" offset="0.539062"/><stop stop-opacity="1" stop-color="rgb(20.94574%, 42.350769%, 65.06958%)" offset="0.542969"/><stop stop-opacity="1" stop-color="rgb(20.704651%, 42.13562%, 64.93988%)" offset="0.546875"/><stop stop-opacity="1" stop-color="rgb(20.463562%, 41.920471%, 64.808655%)" offset="0.550781"/><stop stop-opacity="1" stop-color="rgb(20.223999%, 41.705322%, 64.677429%)" offset="0.554688"/><stop stop-opacity="1" stop-color="rgb(19.98291%, 41.490173%, 64.546204%)" offset="0.558594"/><stop stop-opacity="1" stop-color="rgb(19.741821%, 41.275024%, 64.414978%)" offset="0.5625"/><stop stop-opacity="1" stop-color="rgb(19.500732%, 41.05835%, 64.283752%)" offset="0.566406"/><stop stop-opacity="1" stop-color="rgb(19.261169%, 40.843201%, 64.154053%)" offset="0.570312"/><stop stop-opacity="1" stop-color="rgb(19.020081%, 40.628052%, 64.022827%)" offset="0.574219"/><stop stop-opacity="1" stop-color="rgb(18.778992%, 40.412903%, 63.891602%)" offset="0.578125"/><stop stop-opacity="1" stop-color="rgb(18.537903%, 40.197754%, 63.760376%)" offset="0.582031"/><stop stop-opacity="1" stop-color="rgb(18.29834%, 39.982605%, 63.630676%)" offset="0.585938"/><stop stop-opacity="1" stop-color="rgb(18.057251%, 39.76593%, 63.499451%)" offset="0.589844"/><stop stop-opacity="1" stop-color="rgb(17.816162%, 39.550781%, 63.368225%)" offset="0.59375"/><stop stop-opacity="1" stop-color="rgb(17.575073%, 39.335632%, 63.237%)" offset="0.597656"/><stop stop-opacity="1" stop-color="rgb(17.33551%, 39.120483%, 63.105774%)" offset="0.601562"/><stop stop-opacity="1" stop-color="rgb(17.094421%, 38.905334%, 62.974548%)" offset="0.605469"/><stop stop-opacity="1" stop-color="rgb(16.853333%, 38.690186%, 62.844849%)" offset="0.609375"/><stop stop-opacity="1" stop-color="rgb(16.612244%, 38.473511%, 62.713623%)" offset="0.613281"/><stop stop-opacity="1" stop-color="rgb(16.372681%, 38.258362%, 62.582397%)" offset="0.617188"/><stop stop-opacity="1" stop-color="rgb(16.131592%, 38.043213%, 62.451172%)" offset="0.621094"/><stop stop-opacity="1" stop-color="rgb(15.890503%, 37.828064%, 62.321472%)" offset="0.625"/><stop stop-opacity="1" stop-color="rgb(15.649414%, 37.612915%, 62.190247%)" offset="0.628906"/><stop stop-opacity="1" stop-color="rgb(15.409851%, 37.397766%, 62.059021%)" offset="0.632813"/><stop stop-opacity="1" stop-color="rgb(15.086365%, 37.103271%, 61.885071%)" offset="0.636719"/><stop stop-opacity="1" stop-color="rgb(14.764404%, 36.810303%, 61.712646%)" offset="0.640625"/><stop stop-opacity="1" stop-color="rgb(14.41803%, 36.49292%, 61.526489%)" offset="0.644531"/><stop stop-opacity="1" stop-color="rgb(14.071655%, 36.177063%, 61.340332%)" offset="0.648438"/><stop stop-opacity="1" stop-color="rgb(13.725281%, 35.85968%, 61.154175%)" offset="0.652344"/><stop stop-opacity="1" stop-color="rgb(13.378906%, 35.543823%, 60.969543%)" offset="0.65625"/><stop stop-opacity="1" stop-color="rgb(13.032532%, 35.22644%, 60.783386%)" offset="0.660156"/><stop stop-opacity="1" stop-color="rgb(12.687683%, 34.910583%, 60.597229%)" offset="0.664062"/><stop stop-opacity="1" stop-color="rgb(12.341309%, 34.593201%, 60.411072%)" offset="0.667969"/><stop stop-opacity="1" stop-color="rgb(11.994934%, 34.277344%, 60.22644%)" offset="0.671875"/><stop stop-opacity="1" stop-color="rgb(11.64856%, 33.959961%, 60.040283%)" offset="0.675781"/><stop stop-opacity="1" stop-color="rgb(11.302185%, 33.642578%, 59.854126%)" offset="0.679688"/><stop stop-opacity="1" stop-color="rgb(10.955811%, 33.325195%, 59.667969%)" offset="0.683594"/><stop stop-opacity="1" stop-color="rgb(10.609436%, 33.009338%, 59.483337%)" offset="0.6875"/><stop stop-opacity="1" stop-color="rgb(10.263062%, 32.691956%, 59.29718%)" offset="0.691406"/><stop stop-opacity="1" stop-color="rgb(9.916687%, 32.376099%, 59.111023%)" offset="0.695312"/><stop stop-opacity="1" stop-color="rgb(9.570312%, 32.058716%, 58.924866%)" offset="0.699219"/><stop stop-opacity="1" stop-color="rgb(9.223938%, 31.742859%, 58.738708%)" offset="0.703125"/><stop stop-opacity="1" stop-color="rgb(8.877563%, 31.425476%, 58.552551%)" offset="0.707031"/><stop stop-opacity="1" stop-color="rgb(8.531189%, 31.109619%, 58.36792%)" offset="0.710938"/><stop stop-opacity="1" stop-color="rgb(8.184814%, 30.792236%, 58.181763%)" offset="0.714844"/><stop stop-opacity="1" stop-color="rgb(7.83844%, 30.476379%, 57.995605%)" offset="0.71875"/><stop stop-opacity="1" stop-color="rgb(7.492065%, 30.158997%, 57.809448%)" offset="0.722656"/><stop stop-opacity="1" stop-color="rgb(7.147217%, 29.84314%, 57.624817%)" offset="0.726562"/><stop stop-opacity="1" stop-color="rgb(7.029724%, 29.736328%, 57.559204%)" offset="0.734375"/><stop stop-opacity="1" stop-color="rgb(6.814575%, 29.537964%, 57.435608%)" offset="0.742188"/><stop stop-opacity="1" stop-color="rgb(6.616211%, 29.356384%, 57.321167%)" offset="0.75"/><stop stop-opacity="1" stop-color="rgb(6.417847%, 29.174805%, 57.206726%)" offset="0.757812"/><stop stop-opacity="1" stop-color="rgb(6.219482%, 28.993225%, 57.093811%)" offset="0.765625"/><stop stop-opacity="1" stop-color="rgb(6.021118%, 28.811646%, 56.97937%)" offset="0.773438"/><stop stop-opacity="1" stop-color="rgb(5.822754%, 28.630066%, 56.864929%)" offset="0.78125"/><stop stop-opacity="1" stop-color="rgb(5.62439%, 28.448486%, 56.752014%)" offset="0.789062"/><stop stop-opacity="1" stop-color="rgb(5.426025%, 28.266907%, 56.637573%)" offset="0.796875"/><stop stop-opacity="1" stop-color="rgb(5.227661%, 28.085327%, 56.523132%)" offset="0.804688"/><stop stop-opacity="1" stop-color="rgb(5.029297%, 27.903748%, 56.408691%)" offset="0.8125"/><stop stop-opacity="1" stop-color="rgb(4.829407%, 27.722168%, 56.295776%)" offset="0.820312"/><stop stop-opacity="1" stop-color="rgb(4.631042%, 27.540588%, 56.181335%)" offset="0.828125"/><stop stop-opacity="1" stop-color="rgb(4.432678%, 27.359009%, 56.066895%)" offset="0.835938"/><stop stop-opacity="1" stop-color="rgb(4.234314%, 27.177429%, 55.952454%)" offset="0.84375"/><stop stop-opacity="1" stop-color="rgb(4.03595%, 26.99585%, 55.839539%)" offset="0.851562"/><stop stop-opacity="1" stop-color="rgb(3.837585%, 26.81427%, 55.725098%)" offset="0.859375"/><stop stop-opacity="1" stop-color="rgb(3.639221%, 26.63269%, 55.610657%)" offset="0.867188"/><stop stop-opacity="1" stop-color="rgb(3.440857%, 26.451111%, 55.497742%)" offset="0.875"/><stop stop-opacity="1" stop-color="rgb(3.242493%, 26.269531%, 55.383301%)" offset="0.882812"/><stop stop-opacity="1" stop-color="rgb(3.044128%, 26.087952%, 55.26886%)" offset="0.890625"/><stop stop-opacity="1" stop-color="rgb(2.845764%, 25.906372%, 55.154419%)" offset="0.898438"/><stop stop-opacity="1" stop-color="rgb(2.6474%, 25.724792%, 55.041504%)" offset="0.90625"/><stop stop-opacity="1" stop-color="rgb(2.388%, 25.50354%, 54.899597%)" offset="0.915236"/><stop stop-opacity="1" stop-color="rgb(2.229309%, 25.372314%, 54.814148%)" offset="0.921875"/><stop stop-opacity="1" stop-color="rgb(2.093506%, 25.270081%, 54.747009%)" offset="0.9375"/><stop stop-opacity="1" stop-color="rgb(1.823425%, 25.067139%, 54.611206%)" offset="0.953125"/><stop stop-opacity="1" stop-color="rgb(1.553345%, 24.864197%, 54.476929%)" offset="0.96875"/><stop stop-opacity="1" stop-color="rgb(1.283264%, 24.662781%, 54.341125%)" offset="0.984375"/><stop stop-opacity="1" stop-color="rgb(1.013184%, 24.459839%, 54.205322%)" offset="1"/></linearGradient></defs><g clip-path="url(#a24860c6db)"><g clip-path="url(#683ab33bf5)"><path fill="url(#77e3ee08ea)" d="M 243.027344 274.183594 L 243.027344 535.933594 L 566.972656 535.933594 L 566.972656 274.183594 Z M 243.027344 274.183594 " fill-rule="nonzero"/></g></g></svg>